<svg width="141" height="32" viewBox="0 0 141 32" fill="none" xmlns="http://www.w3.org/2000/svg">
<g clip-path="url(#clip0_535_243)">
<path fill-rule="evenodd" clip-rule="evenodd" d="M1.68064 3.70953C0 6.04315 0 9.3621 0 16C0 22.6379 0 25.9569 1.68064 28.2904C2.24387 29.0725 2.93024 29.7582 3.71303 30.321C6.04884 32 9.37092 32 16.0151 32C22.6592 32 25.9813 32 28.317 30.321C29.0999 29.7582 29.7862 29.0725 30.3496 28.2904C32.0302 25.9569 32.0302 22.6379 32.0302 16C32.0302 9.3621 32.0302 6.04315 30.3496 3.70953C29.7862 2.92748 29.0999 2.24175 28.317 1.67905C25.9813 0 22.6592 0 16.0151 0C9.37092 0 6.04884 0 3.71303 1.67905C2.93024 2.24175 2.24387 2.92748 1.68064 3.70953ZM22.564 11.6283C23.4294 12.9223 23.8914 14.4437 23.8914 16H16.0151V23.8689C14.4573 23.8689 12.9345 23.4073 11.6393 22.5427C10.344 21.6781 9.33448 20.4491 8.73835 19.0113C8.14223 17.5734 7.98625 15.9913 8.29014 14.4649C8.59406 12.9385 9.3442 11.5364 10.4457 10.4359C11.5472 9.3354 12.9507 8.58597 14.4785 8.28233C16.0063 7.97873 17.59 8.13456 19.0292 8.73012C20.4684 9.32569 21.6985 10.3343 22.564 11.6283Z" fill="#07070A"/>
<path d="M45.1632 23.0818C44.1941 23.0818 43.2915 22.9071 42.4558 22.5576C41.632 22.2081 40.9113 21.72 40.2935 21.0933C39.6758 20.4666 39.1914 19.7314 38.8401 18.8878C38.5009 18.0442 38.3313 17.1222 38.3313 16.1219C38.3313 15.1217 38.5009 14.1997 38.8401 13.3561C39.1793 12.5004 39.6577 11.7653 40.2754 11.1506C40.8932 10.5239 41.6139 10.0419 42.4377 9.70442C43.2734 9.35492 44.1818 9.18018 45.1632 9.18018C46.1443 9.18018 47.0225 9.34288 47.7975 9.66828C48.5849 9.99366 49.2512 10.4275 49.7963 10.9698C50.3413 11.5122 50.7291 12.1148 50.9591 12.7776L48.4699 13.9707C48.2399 13.3199 47.834 12.7836 47.2525 12.3618C46.6833 11.928 45.9868 11.711 45.1632 11.711C44.3635 11.711 43.6612 11.8978 43.0555 12.2714C42.4498 12.645 41.9772 13.1633 41.6383 13.8261C41.3112 14.4769 41.1476 15.2422 41.1476 16.1219C41.1476 17.0017 41.3112 17.773 41.6383 18.4359C41.9772 19.0987 42.4498 19.6169 43.0555 19.9906C43.6612 20.3641 44.3635 20.551 45.1632 20.551C45.9868 20.551 46.6833 20.34 47.2525 19.9182C47.834 19.4844 48.2399 18.9421 48.4699 18.2913L50.9591 19.4844C50.7291 20.1472 50.3413 20.7498 49.7963 21.2921C49.2512 21.8345 48.5849 22.2683 47.7975 22.5937C47.0225 22.9191 46.1443 23.0818 45.1632 23.0818Z" fill="#07070A"/>
<path d="M57.3131 23.082C56.3317 23.082 55.4354 22.8591 54.6239 22.4132C53.8244 21.9673 53.1825 21.3587 52.6979 20.5873C52.2255 19.804 51.9893 18.9182 51.9893 17.9299C51.9893 16.9296 52.2255 16.0439 52.6979 15.2725C53.1825 14.5012 53.8244 13.8926 54.6239 13.4467C55.4354 13.0008 56.3317 12.7778 57.3131 12.7778C58.2942 12.7778 59.1845 13.0008 59.9839 13.4467C60.7834 13.8926 61.4193 14.5012 61.8918 15.2725C62.3762 16.0439 62.6185 16.9296 62.6185 17.9299C62.6185 18.9182 62.3762 19.804 61.8918 20.5873C61.4193 21.3587 60.7834 21.9673 59.9839 22.4132C59.1845 22.8591 58.2942 23.082 57.3131 23.082ZM57.3131 20.6416C57.8096 20.6416 58.2396 20.5271 58.603 20.2981C58.9784 20.0691 59.2693 19.7497 59.4751 19.34C59.6933 18.9302 59.8023 18.4602 59.8023 17.9299C59.8023 17.3997 59.6933 16.9357 59.4751 16.538C59.2693 16.1282 58.9784 15.8088 58.603 15.5799C58.2396 15.3388 57.8096 15.2183 57.3131 15.2183C56.8164 15.2183 56.3803 15.3388 56.0048 15.5799C55.6291 15.8088 55.3325 16.1282 55.1146 16.538C54.9085 16.9357 54.8055 17.3997 54.8055 17.9299C54.8055 18.4602 54.9085 18.9302 55.1146 19.34C55.3325 19.7497 55.6291 20.0691 56.0048 20.2981C56.3803 20.5271 56.8164 20.6416 57.3131 20.6416Z" fill="#07070A"/>
<path d="M64.2239 22.8651V12.9948H66.7676V14.9471L66.6225 14.5133C66.8525 13.9228 67.2219 13.4889 67.7307 13.2117C68.2515 12.9225 68.8572 12.7778 69.5477 12.7778C70.2986 12.7778 70.9528 12.9345 71.51 13.2479C72.0794 13.5612 72.5215 14.0011 72.8363 14.5675C73.1514 15.1219 73.3086 15.7727 73.3086 16.5199V22.8651H70.5834V17.0984C70.5834 16.7127 70.5047 16.3813 70.3472 16.1041C70.2017 15.8269 69.9898 15.61 69.7113 15.4533C69.4448 15.2967 69.1297 15.2183 68.7664 15.2183C68.4151 15.2183 68.1 15.2967 67.8215 15.4533C67.5429 15.61 67.325 15.8269 67.1675 16.1041C67.0221 16.3813 66.9493 16.7127 66.9493 17.0984V22.8651H64.2239Z" fill="#07070A"/>
<path d="M78.0304 22.865L74.124 12.9946H77.0674L79.7747 20.4606H78.6482L81.3555 12.9946H84.2989L80.3925 22.865H78.0304Z" fill="#07070A"/>
<path d="M90.1 23.082C89.0462 23.082 88.1317 22.8531 87.3564 22.3951C86.5812 21.9251 85.9818 21.2984 85.5578 20.515C85.1338 19.7317 84.9216 18.8639 84.9216 17.9119C84.9216 16.9236 85.1398 16.0439 85.5759 15.2725C86.024 14.5012 86.6237 13.8926 87.3746 13.4467C88.1257 13.0008 88.9737 12.7778 89.9183 12.7778C90.7057 12.7778 91.4022 12.9044 92.0079 13.1575C92.6136 13.3985 93.1224 13.742 93.5341 14.1879C93.9581 14.6338 94.2792 15.152 94.4971 15.7426C94.7152 16.321 94.8242 16.9538 94.8242 17.6407C94.8242 17.8335 94.8121 18.0264 94.788 18.2192C94.7756 18.3999 94.7454 18.5566 94.6969 18.6892H87.2656V16.7007H93.1526L91.8625 17.6407C91.9838 17.1225 91.9777 16.6645 91.8443 16.2668C91.7112 15.857 91.475 15.5377 91.1357 15.3087C90.8086 15.0677 90.403 14.9471 89.9183 14.9471C89.446 14.9471 89.0401 15.0616 88.7009 15.2906C88.362 15.5196 88.1076 15.857 87.938 16.3029C87.7684 16.7489 87.7017 17.2912 87.7379 17.9299C87.6896 18.4843 87.7563 18.9724 87.938 19.3942C88.1197 19.816 88.3982 20.1475 88.7737 20.3885C89.1493 20.6175 89.6036 20.732 90.1365 20.732C90.6209 20.732 91.0328 20.6355 91.372 20.4427C91.7233 20.2499 91.9958 19.9848 92.1896 19.6473L94.37 20.6777C94.1763 21.1598 93.8672 21.5816 93.4432 21.9432C93.0316 22.3047 92.5409 22.5879 91.9717 22.7928C91.4022 22.9856 90.7784 23.082 90.1 23.082Z" fill="#07070A"/>
<path d="M96.429 22.8651V12.9947H98.9727V15.3629L98.7911 15.0194C99.009 14.1878 99.3663 13.6274 99.863 13.3382C100.372 13.0369 100.971 12.8862 101.662 12.8862H102.243V15.2363H101.389C100.723 15.2363 100.184 15.4412 99.7722 15.851C99.3602 16.2487 99.1544 16.8151 99.1544 17.5503V22.8651H96.429Z" fill="#07070A"/>
<path d="M108.571 22.9734C107.372 22.9734 106.439 22.654 105.773 22.0153C105.119 21.3644 104.792 20.4606 104.792 19.3036V15.3446H103.12V12.9946H103.211C103.72 12.9946 104.108 12.868 104.374 12.6149C104.653 12.3618 104.792 11.9822 104.792 11.476V10.7529H107.517V12.9946H109.843V15.3446H107.517V19.1228C107.517 19.4603 107.578 19.7435 107.699 19.9725C107.82 20.1894 108.008 20.3521 108.262 20.4606C108.517 20.569 108.832 20.6233 109.207 20.6233C109.292 20.6233 109.389 20.6172 109.498 20.6052C109.607 20.5931 109.722 20.5811 109.843 20.569V22.8649C109.661 22.889 109.456 22.9131 109.225 22.9372C108.995 22.9613 108.777 22.9734 108.571 22.9734Z" fill="#07070A"/>
<path d="M111.64 22.8653V9.39746H114.456V16.1404L113.675 15.8692L119.09 9.39746H122.614L117.254 15.8331L117.418 13.8445L122.723 22.8653H119.435L116.128 17.1708L114.456 19.1774V22.8653H111.64Z" fill="#07070A"/>
<path d="M123.914 22.8653V12.9949H126.64V22.8653H123.914ZM123.914 12.1091V9.39746H126.64V12.1091H123.914Z" fill="#07070A"/>
<path d="M133.413 22.9734C132.214 22.9734 131.281 22.654 130.615 22.0153C129.96 21.3644 129.634 20.4606 129.634 19.3036V15.3446H127.962V12.9946H128.053C128.561 12.9946 128.949 12.868 129.216 12.6149C129.494 12.3618 129.634 11.9822 129.634 11.476V10.7529H132.359V12.9946H134.685V15.3446H132.359V19.1228C132.359 19.4603 132.419 19.7435 132.541 19.9725C132.662 20.1894 132.849 20.3521 133.104 20.4606C133.358 20.569 133.673 20.6233 134.049 20.6233C134.133 20.6233 134.23 20.6172 134.339 20.6052C134.448 20.5931 134.564 20.5811 134.685 20.569V22.8649C134.503 22.889 134.297 22.9131 134.067 22.9372C133.837 22.9613 133.619 22.9734 133.413 22.9734Z" fill="#07070A"/>
<path d="M136.437 11.9246V9.05859H137.534C137.732 9.05859 137.906 9.09322 138.058 9.16246C138.212 9.23171 138.332 9.33432 138.42 9.47024C138.507 9.60616 138.551 9.77413 138.551 9.97419C138.551 10.1691 138.506 10.3358 138.416 10.4743C138.326 10.6102 138.205 10.7128 138.054 10.7821L138.709 11.9246H138.039L137.33 10.659L137.715 10.8859H137.034V11.9246H136.437ZM137.034 10.3666H137.538C137.623 10.3666 137.696 10.3499 137.757 10.3166C137.819 10.2832 137.867 10.2371 137.9 10.1781C137.936 10.1191 137.954 10.0511 137.954 9.97419C137.954 9.89469 137.936 9.82544 137.9 9.76645C137.867 9.70746 137.819 9.6613 137.757 9.62796C137.696 9.59462 137.623 9.57794 137.538 9.57794H137.034V10.3666Z" fill="#07070A"/>
<path fill-rule="evenodd" clip-rule="evenodd" d="M137.572 8.04883C136.222 8.04883 135.127 9.14255 135.127 10.4917C135.127 11.8409 136.222 12.9346 137.572 12.9346C138.923 12.9346 140.018 11.8409 140.018 10.4917C140.018 9.14255 138.923 8.04883 137.572 8.04883ZM134.627 10.4917C134.627 8.86641 135.946 7.54883 137.572 7.54883C139.199 7.54883 140.518 8.86641 140.518 10.4917C140.518 12.117 139.199 13.4346 137.572 13.4346C135.946 13.4346 134.627 12.117 134.627 10.4917Z" fill="#07070A"/>
</g>
<defs>
<clipPath id="clip0_535_243">
<rect width="140.46" height="32" fill="white"/>
</clipPath>
</defs>
</svg>
