<svg width="148" height="48" viewBox="0 0 148 48" fill="none" xmlns="http://www.w3.org/2000/svg">
<path d="M137.665 30.8778H135.326V22.0634H133.745V20.1143H135.326C135.369 17.6887 136.82 16.3677 139.549 16.3677H140.415V18.2302H139.116C138.076 18.2302 137.6 18.62 137.6 19.5296V20.1143H141.65L142.148 17.4505H143.946V20.1143H147.194V22.0634H143.946V27.456C143.946 28.5822 144.422 28.7771 145.873 28.7771H147.194V30.6829C146.739 30.7912 146.003 30.8778 145.267 30.8778C142.863 30.8778 141.607 29.9899 141.607 27.5643V22.0634H137.665V30.8778Z" fill="#07070A"/>
<path d="M132.678 18.7499H130.361L130.339 16.3677H132.678V18.7499ZM132.7 30.8778H130.361V20.0493H132.7V30.8778Z" fill="#07070A"/>
<path d="M120.5 30.8778H118.161V16.3677H120.5V21.9118H120.586C121.084 20.9373 122.232 19.8978 124.181 19.8978C126.997 19.8978 128.188 21.7386 128.188 24.0992V30.8778H125.849V24.6406C125.849 22.7131 125.242 21.9118 123.272 21.9118C121.366 21.9118 120.5 22.6482 120.5 24.6839V30.8778Z" fill="#07070A"/>
<path d="M112.049 31.0946C108.909 31.0946 107.263 29.8601 107.263 27.2396V27.1963H109.515V27.5861C109.515 28.7556 110.035 29.1888 112.092 29.1888C113.825 29.1888 114.15 28.7989 114.15 27.9976C114.15 27.1314 113.63 26.8715 112.049 26.5899L110.381 26.3084C108.454 25.9619 107.241 25.0956 107.241 23.1465C107.241 21.1974 108.844 19.8979 111.659 19.8979C114.193 19.8979 116.099 21.154 116.099 23.6013V23.7962H113.868V23.5363C113.868 22.5401 113.521 21.8254 111.594 21.8254C109.883 21.8254 109.472 22.2802 109.472 23.1032C109.472 23.9261 109.861 24.1644 111.377 24.4676L113.197 24.8141C115.276 25.2255 116.359 26.1568 116.359 27.9327C116.359 29.9251 114.778 31.0946 112.049 31.0946Z" fill="#07070A"/>
<path d="M106.269 30.8777H96.0903V29.0369L101.331 23.7093L102.717 22.3449V22.1717H96.4152V20.1143H105.944V22.1067L100.552 27.4343L99.2956 28.6471V28.8203H106.269V30.8777Z" fill="#07070A"/>
<path d="M93.1831 30.878C90.7792 30.878 89.5231 29.99 89.5231 27.5645V22.0636H87.7256V20.1145H89.5664L90.0645 17.4507H91.8621V20.1145H95.1106V22.0636H91.8621V27.4562C91.8621 28.5823 92.3385 28.7772 93.7895 28.7772H95.1106V30.683C94.6558 30.7913 93.9195 30.878 93.1831 30.878Z" fill="#07070A"/>
<path d="M86.5128 30.8778H84.1738V16.3677H86.5128V30.8778Z" fill="#07070A"/>
<path d="M77.1199 31.0946C73.8064 31.0946 71.749 28.8422 71.749 25.4854C71.749 22.1503 73.8064 19.8979 77.1199 19.8979C80.4118 19.8979 82.4042 22.1503 82.4042 25.4854C82.4042 28.8422 80.4118 31.0946 77.1199 31.0946ZM77.1199 29.0155C79.3722 29.0155 80.1519 27.911 80.1519 25.4854C80.1519 23.0815 79.3722 21.977 77.1199 21.977C74.846 21.977 74.0447 23.0815 74.0447 25.4854C74.0447 27.911 74.846 29.0155 77.1199 29.0155Z" fill="#07070A"/>
<path d="M65.7263 30.8778H58.7961V16.3677H65.4665C68.3035 16.3677 70.0144 17.5371 70.0144 19.9844C70.0144 21.6736 69.0615 22.8214 67.199 23.103V23.2762C69.408 23.5578 70.5342 24.9871 70.5342 26.8929C70.5342 29.3618 68.78 30.8778 65.7263 30.8778ZM61.1351 18.4684V22.3883H65.2499C67.0041 22.3883 67.6971 21.9118 67.6971 20.4392C67.6971 18.9448 67.0691 18.4684 65.3149 18.4684H61.1351ZM61.1351 24.3374V28.7771H65.6614C67.4156 28.7771 68.1736 28.279 68.1736 26.5681C68.1736 24.8355 67.4156 24.3374 65.6614 24.3374H61.1351Z" fill="#07070A"/>
<path d="M23.0881 0.0182519C27.6223 -0.160611 32.2021 0.978642 36.1143 3.28107C41.2523 6.27275 45.2055 11.2399 46.9372 16.9316C48.4535 21.8372 48.3396 27.2316 46.6068 32.0654C45.1896 36.0471 42.6935 39.638 39.458 42.3552C36.3 45.0244 32.4391 46.8563 28.3708 47.5991C23.3159 48.5424 17.9637 47.8099 13.3577 45.5177C10.7443 44.219 8.36438 42.4452 6.38436 40.2999C3.59661 37.298 1.59722 33.5681 0.652783 29.5807C-0.397608 25.1695 -0.18115 20.4587 1.30785 16.1729C3.31749 10.2636 7.75602 5.23603 13.3577 2.48701C16.3745 0.979781 19.7193 0.14357 23.0881 0.0182519ZM29.5294 9.88076C24.249 13.6369 18.9742 17.4021 13.6938 21.1582C12.9977 21.5581 12.4361 22.3522 12.6366 23.185C12.7346 23.6623 13.2073 24.0177 13.6915 23.9938C17.7963 24.0029 21.8998 23.9277 26.0034 23.9813C25.918 24.0223 25.746 24.1043 25.6594 24.1453C23.5939 24.8779 21.5216 25.5933 19.4607 26.3407C18.5174 29.6878 17.5775 33.0361 16.6331 36.3832C16.5374 36.7295 16.4041 37.0838 16.4599 37.4495C16.5146 37.8619 16.8222 38.239 17.2278 38.3484C17.6823 38.4828 18.1677 38.329 18.5447 38.0659C23.8856 34.2585 29.2286 30.4545 34.5695 26.6494C35.2188 26.2097 35.629 25.2892 35.2519 24.5498C35.0742 24.1533 34.6139 23.9802 34.2026 23.9961C32.095 23.9915 29.9863 23.9984 27.8786 23.9927C29.0805 19.7125 30.2893 15.4346 31.4901 11.1544C31.6131 10.7238 31.5493 10.2009 31.2018 9.89102C30.7382 9.47405 30.0159 9.54354 29.5294 9.88076Z" fill="#FAD007"/>
</svg>
