<svg width="2189" height="42" viewBox="0 0 2189 42" fill="none" xmlns="http://www.w3.org/2000/svg">
<path d="M14.4479 33.1201C5.18391 33.1201 -9.36985e-05 26.5921 -9.36985e-05 16.5601C-9.36985e-05 6.57613 5.18391 0.000136375 14.4479 0.000136375C23.6639 0.000136375 28.8479 6.57613 28.8479 16.5601C28.8479 26.5921 23.6639 33.1201 14.4479 33.1201ZM14.4479 26.1601C19.3439 26.1601 21.1679 24.1921 21.1679 16.5601C21.1679 8.92814 19.3439 6.96014 14.4479 6.96014C9.50391 6.96014 7.67991 8.92814 7.67991 16.5601C7.67991 24.1921 9.50391 26.1601 14.4479 26.1601ZM46.5625 32.6401H39.4105V9.60014H32.1625V4.46414H33.6025C36.6265 4.46414 38.4985 3.36014 40.0345 0.480136H46.5625V32.6401ZM63.3292 32.6401H51.0412V0.480136H63.3292C73.6492 0.480136 79.9852 6.48014 79.9852 16.5601C79.9852 26.6401 73.6492 32.6401 63.3292 32.6401ZM63.2332 6.96014H58.2412V26.1601H63.2332C69.7612 26.1601 72.2572 24.1921 72.2572 16.5601C72.2572 8.92814 69.7612 6.96014 63.2332 6.96014ZM94.7564 33.1201C86.4524 33.1201 82.6604 28.2721 82.6604 20.6401C82.6604 12.9121 87.2684 8.01614 94.8044 8.01614C102.052 8.01614 106.324 12.3361 106.324 18.6241C106.324 19.9681 106.132 21.3601 105.988 22.1761H89.4284C89.5724 25.5361 90.9164 26.8801 94.8524 26.8801C97.7324 26.8801 98.9804 26.2561 98.9804 24.7681V24.4801H106.084V24.9601C106.084 30.0961 101.668 33.1201 94.7564 33.1201ZM94.5644 13.9201C91.1084 13.9201 89.7644 15.2641 89.4764 17.8081H99.4124C99.5564 15.3121 97.9244 13.9201 94.5644 13.9201ZM120.664 33.1201C113.08 33.1201 109.384 30.2881 109.384 24.4321V24.2881H116.248V25.2961C116.248 27.0721 117.304 27.4561 120.808 27.4561C123.736 27.4561 124.216 27.0241 124.216 25.8241C124.216 24.5281 123.544 24.2401 120.328 23.6641L116.68 22.9921C111.928 22.1281 109.336 20.1121 109.336 15.6481C109.336 11.1841 112.984 8.01614 119.848 8.01614C125.752 8.01614 130.264 10.8001 130.264 16.2241V16.8961H123.4V16.2241C123.4 14.6401 122.728 13.7761 119.656 13.7761C116.776 13.7761 116.104 14.4001 116.104 15.5521C116.104 16.7041 116.536 17.0401 119.416 17.6161L123.832 18.5281C128.92 19.4881 131.032 21.7921 131.032 25.7281C131.032 30.2401 127.336 33.1201 120.664 33.1201ZM140.964 5.76014H133.908L133.812 0.480136H140.964V5.76014ZM141.108 32.6401H133.908V8.49614H141.108V32.6401ZM154.197 30.0961C147.525 30.0961 143.973 25.8241 143.973 19.1041C143.973 12.3841 147.621 8.01614 154.485 8.01614C157.941 8.01614 160.677 9.36014 161.973 12.0001H162.213V8.49614H168.885V29.9521C168.885 37.8241 164.709 41.2801 156.933 41.2801C149.397 41.2801 145.173 37.9681 145.173 31.8241H152.325C152.325 34.3201 153.045 34.9441 157.173 34.9441C160.965 34.9441 161.733 34.0801 161.733 30.3361V26.5921H161.445C160.389 28.4641 157.845 30.0961 154.197 30.0961ZM151.125 19.1041C151.125 22.5121 152.325 24.0961 156.405 24.0961C159.861 24.0961 161.733 22.8961 161.733 19.8241V18.3841C161.733 15.3121 159.909 14.1121 156.453 14.1121C152.325 14.1121 151.125 15.6961 151.125 19.1041ZM180.442 32.6401H173.29V8.49614H179.962V12.7201H180.25C181.546 9.98414 184.138 8.01614 188.362 8.01614C194.65 8.01614 197.338 12.1921 197.338 17.3281V32.6401H190.138V18.7681C190.138 15.4081 189.034 14.2081 185.386 14.2081C181.93 14.2081 180.442 15.3121 180.442 18.9601V32.6401ZM225.432 33.1201C216.168 33.1201 210.984 26.5921 210.984 16.5601C210.984 6.57613 216.168 0.000136375 225.432 0.000136375C234.648 0.000136375 239.832 6.57613 239.832 16.5601C239.832 26.5921 234.648 33.1201 225.432 33.1201ZM225.432 26.1601C230.328 26.1601 232.152 24.1921 232.152 16.5601C232.152 8.92814 230.328 6.96014 225.432 6.96014C220.488 6.96014 218.664 8.92814 218.664 16.5601C218.664 24.1921 220.488 26.1601 225.432 26.1601ZM269.982 32.6401H244.83V28.3201C244.83 22.0801 249.054 19.4881 253.518 17.3281L259.086 14.6881C261.918 13.3441 262.926 12.2881 262.926 10.1761C262.926 7.87214 261.87 6.57613 257.598 6.57613C252.942 6.57613 251.982 7.87214 251.982 11.3281V12.1441H244.782V11.3761C244.782 5.13614 248.622 0.000136375 258.174 0.000136375C266.67 0.000136375 270.078 4.32014 270.078 10.1281C270.078 15.6961 266.142 18.5281 261.966 20.4001L257.118 22.5121C254.478 23.7121 252.51 24.7201 252.51 26.2561L257.694 26.1601H269.982V32.6401ZM287.157 32.6401H274.869V0.480136H287.157C297.477 0.480136 303.813 6.48014 303.813 16.5601C303.813 26.6401 297.477 32.6401 287.157 32.6401ZM287.061 6.96014H282.069V26.1601H287.061C293.589 26.1601 296.085 24.1921 296.085 16.5601C296.085 8.92814 293.589 6.96014 287.061 6.96014ZM318.585 33.1201C310.281 33.1201 306.489 28.2721 306.489 20.6401C306.489 12.9121 311.097 8.01614 318.633 8.01614C325.881 8.01614 330.153 12.3361 330.153 18.6241C330.153 19.9681 329.961 21.3601 329.817 22.1761H313.257C313.401 25.5361 314.745 26.8801 318.681 26.8801C321.561 26.8801 322.809 26.2561 322.809 24.7681V24.4801H329.913V24.9601C329.913 30.0961 325.497 33.1201 318.585 33.1201ZM318.393 13.9201C314.937 13.9201 313.593 15.2641 313.305 17.8081H323.241C323.385 15.3121 321.753 13.9201 318.393 13.9201ZM349.034 32.6401H339.866L330.506 8.49614H338.522L344.282 25.7281H344.81L350.57 8.49614H358.442L349.034 32.6401ZM370.616 33.1201C362.312 33.1201 358.52 28.2721 358.52 20.6401C358.52 12.9121 363.128 8.01614 370.664 8.01614C377.912 8.01614 382.184 12.3361 382.184 18.6241C382.184 19.9681 381.992 21.3601 381.848 22.1761H365.288C365.432 25.5361 366.776 26.8801 370.712 26.8801C373.592 26.8801 374.84 26.2561 374.84 24.7681V24.4801H381.944V24.9601C381.944 30.0961 377.528 33.1201 370.616 33.1201ZM370.424 13.9201C366.968 13.9201 365.624 15.2641 365.336 17.8081H375.272C375.416 15.3121 373.784 13.9201 370.424 13.9201ZM392.833 32.6401H385.681V0.480136H392.833V32.6401ZM408.544 33.1201C400.768 33.1201 396.16 28.2241 396.16 20.5921C396.16 12.9121 400.768 8.01614 408.544 8.01614C416.272 8.01614 420.784 12.9121 420.784 20.5921C420.784 28.2241 416.272 33.1201 408.544 33.1201ZM408.544 26.7841C412.432 26.7841 413.776 25.2481 413.776 20.5921C413.776 15.8881 412.432 14.3521 408.544 14.3521C404.608 14.3521 403.264 15.8881 403.264 20.5921C403.264 25.2481 404.608 26.7841 408.544 26.7841ZM430.839 40.7041H423.639V8.49614H430.311V12.0481H430.551C431.847 9.45614 434.631 8.01614 438.231 8.01614C445.047 8.01614 448.599 12.9601 448.599 20.5921C448.599 28.1761 444.903 33.1201 438.375 33.1201C434.535 33.1201 432.183 31.5361 431.079 29.4721H430.839V40.7041ZM430.839 22.5121C430.839 25.7761 432.711 26.9761 436.119 26.9761C440.295 26.9761 441.399 24.9601 441.399 20.5921C441.399 16.1761 440.295 14.1601 436.119 14.1601C432.711 14.1601 430.839 15.3601 430.839 18.6241V22.5121ZM459.395 32.6401H452.243V8.49614H458.915V12.7201H459.203C460.499 9.98414 462.995 8.01614 467.123 8.01614C471.251 8.01614 473.747 9.88813 474.947 12.7201H475.187C476.531 10.0801 478.931 8.01614 483.395 8.01614C489.635 8.01614 492.179 12.1921 492.179 17.3281V32.6401H484.979V18.7681C484.979 15.4081 483.971 14.2081 480.467 14.2081C477.203 14.2081 475.811 15.2641 475.811 18.7681V32.6401H468.611V18.7681C468.611 15.4081 467.555 14.2081 464.099 14.2081C460.835 14.2081 459.395 15.2641 459.395 18.6721V32.6401ZM507.538 33.1201C499.234 33.1201 495.442 28.2721 495.442 20.6401C495.442 12.9121 500.05 8.01614 507.586 8.01614C514.834 8.01614 519.106 12.3361 519.106 18.6241C519.106 19.9681 518.914 21.3601 518.77 22.1761H502.21C502.354 25.5361 503.698 26.8801 507.634 26.8801C510.514 26.8801 511.762 26.2561 511.762 24.7681V24.4801H518.866V24.9601C518.866 30.0961 514.45 33.1201 507.538 33.1201ZM507.346 13.9201C503.89 13.9201 502.546 15.2641 502.258 17.8081H512.194C512.338 15.3121 510.706 13.9201 507.346 13.9201ZM529.708 32.6401H522.556V8.49614H529.228V12.7201H529.516C530.812 9.98414 533.404 8.01614 537.628 8.01614C543.916 8.01614 546.604 12.1921 546.604 17.3281V32.6401H539.404V18.7681C539.404 15.4081 538.3 14.2081 534.652 14.2081C531.196 14.2081 529.708 15.3121 529.708 18.9601V32.6401ZM561.77 32.7361C555.482 32.7361 552.458 30.4321 552.458 24.7201V14.4481H548.618V8.49614H552.65L553.994 2.88014H559.658V8.49614H566.474V14.4481H559.658V23.9041C559.658 26.0161 560.378 26.2561 563.498 26.2561H566.474V32.2561C565.322 32.4961 563.45 32.7361 561.77 32.7361ZM591.414 32.8001C588.534 32.8001 586.79 30.6721 586.79 27.2801C586.79 23.8881 588.534 21.7601 591.414 21.7601C594.294 21.7601 596.054 23.8881 596.054 27.2801C596.054 30.6721 594.294 32.8001 591.414 32.8001ZM591.414 31.1361C593.318 31.1361 594.214 30.1121 594.214 27.2801C594.214 24.4481 593.318 23.4241 591.414 23.4241C589.51 23.4241 588.63 24.4481 588.63 27.2801C588.63 30.1121 589.51 31.1361 591.414 31.1361ZM601.884 32.8001C598.828 32.8001 597.66 31.4081 597.66 29.3601V29.1041H599.356V29.3441C599.356 30.6881 599.804 31.2161 601.916 31.2161C603.612 31.2161 604.284 30.8001 604.284 29.5521C604.284 28.2081 603.692 27.8081 602.204 27.8081H600.06V26.3681H601.964C603.372 26.3681 603.916 26.0161 603.916 24.8961C603.916 23.7761 603.276 23.3441 601.772 23.3441C599.916 23.3441 599.356 23.8721 599.356 25.2161V25.3441H597.66V25.2001C597.66 23.1521 599.1 21.7601 601.788 21.7601C604.204 21.7601 605.644 22.7521 605.644 24.6241C605.644 25.8561 605.02 26.7681 603.66 26.9601V27.0241C605.132 27.2321 606.028 28.1921 606.028 29.7281C606.028 31.7921 604.364 32.8001 601.884 32.8001ZM622.884 33.1201C613.524 33.1201 608.772 28.1281 608.772 20.1121V0.480136H615.924V20.0161C615.924 24.6241 617.556 26.1601 622.884 26.1601C628.164 26.1601 629.796 24.6241 629.796 20.0161V0.480136H636.996V20.1121C636.996 28.1281 632.244 33.1201 622.884 33.1201ZM647.758 32.6401H639.358L649.294 16.7521V16.2721L639.358 0.480136H647.854L655.006 11.9041H655.486L662.446 0.480136H670.846L660.958 16.2241V16.7041L670.846 32.6401H662.35L655.198 21.1681H654.718L647.758 32.6401ZM694.774 32.7801C692.436 32.7801 690.896 30.9601 690.896 27.9501C690.896 24.9401 692.436 23.1201 694.774 23.1201C697.126 23.1201 698.652 24.9401 698.652 27.9501C698.652 30.9601 697.126 32.7801 694.774 32.7801ZM694.774 31.8141C696.622 31.8141 697.602 30.6381 697.602 27.9501C697.602 25.2621 696.622 24.0861 694.774 24.0861C692.94 24.0861 691.96 25.2621 691.96 27.9501C691.96 30.6381 692.94 31.8141 694.774 31.8141ZM705.994 32.6401H704.986V30.5541H699.54V29.8261L704.818 23.2601H705.994V29.6441H707.534V30.5541H705.994V32.6401ZM700.828 29.6441H704.986V24.5201H704.916L700.828 29.5741V29.6441ZM726.684 32.6401H710.076V0.480136H725.916C732.78 0.480136 736.476 2.92814 736.476 8.49614C736.476 12.3361 734.316 14.8321 730.044 15.3601V15.8401C735.228 16.2241 737.772 19.4881 737.772 23.8081C737.772 29.2321 734.028 32.6401 726.684 32.6401ZM717.276 6.96014V13.2001H725.436C728.124 13.2001 729.276 12.6241 729.276 10.0801C729.276 7.48813 728.076 6.96014 725.436 6.96014H717.276ZM717.276 19.0561V26.1601H726.444C729.084 26.1601 730.524 25.6801 730.524 22.6561C730.524 19.5361 729.132 19.0561 726.444 19.0561H717.276ZM748.493 32.6401H741.341V8.49614H748.013V12.3841H748.301C749.501 9.93614 751.661 8.01614 755.069 8.01614C760.109 8.01614 761.981 11.7601 761.981 16.6081V18.8161H754.829V17.5201C754.829 14.9281 754.013 14.1121 751.757 14.1121C749.549 14.1121 748.493 14.8801 748.493 17.5201V32.6401ZM770.935 33.1201C766.663 33.1201 763.351 30.8641 763.351 26.4961C763.351 22.7521 766.039 20.4481 771.031 19.6801L779.287 18.4321V17.6641C779.287 14.8321 777.751 14.3041 774.919 14.3041C771.991 14.3041 770.839 15.1201 770.839 17.5681V18.0961H763.975V17.5681C763.975 11.8081 768.439 8.01614 775.255 8.01614C782.359 8.01614 786.103 11.9041 786.103 18.3361V32.6401H779.431V29.3761H779.143C777.847 31.1521 775.399 33.1201 770.935 33.1201ZM770.215 25.9201C770.215 27.2161 771.223 27.6481 773.335 27.6481C776.263 27.6481 779.287 26.8801 779.287 23.1361L772.375 24.1921C770.887 24.4321 770.215 24.9121 770.215 25.9201ZM797.524 32.6401H790.372V8.49614H797.044V12.7201H797.332C798.628 9.98414 801.22 8.01614 805.444 8.01614C811.732 8.01614 814.42 12.1921 814.42 17.3281V32.6401H807.22V18.7681C807.22 15.4081 806.116 14.2081 802.468 14.2081C799.012 14.2081 797.524 15.3121 797.524 18.9601V32.6401ZM828.097 33.1201C821.281 33.1201 817.633 28.1761 817.633 20.5921C817.633 12.9601 821.521 8.01614 828.097 8.01614C831.793 8.01614 834.001 9.64814 835.105 11.6641H835.393V0.480136H842.545V32.6401H835.873V29.0881H835.633C834.385 31.6801 831.649 33.1201 828.097 33.1201ZM824.785 20.5921C824.785 24.9601 825.937 26.9761 830.113 26.9761C833.521 26.9761 835.393 25.7761 835.393 22.5121V18.6241C835.393 15.3601 833.521 14.1601 830.113 14.1601C825.937 14.1601 824.785 16.1761 824.785 20.5921ZM853.718 5.76014H846.662L846.566 0.480136H853.718V5.76014ZM853.862 32.6401H846.662V8.49614H853.862V32.6401ZM865.024 32.6401H857.872V8.49614H864.544V12.7201H864.832C866.128 9.98414 868.72 8.01614 872.944 8.01614C879.232 8.01614 881.92 12.1921 881.92 17.3281V32.6401H874.72V18.7681C874.72 15.4081 873.616 14.2081 869.968 14.2081C866.512 14.2081 865.024 15.3121 865.024 18.9601V32.6401ZM895.357 30.0961C888.685 30.0961 885.133 25.8241 885.133 19.1041C885.133 12.3841 888.781 8.01614 895.645 8.01614C899.101 8.01614 901.837 9.36014 903.133 12.0001H903.373V8.49614H910.045V29.9521C910.045 37.8241 905.869 41.2801 898.093 41.2801C890.557 41.2801 886.333 37.9681 886.333 31.8241H893.485C893.485 34.3201 894.205 34.9441 898.333 34.9441C902.125 34.9441 902.893 34.0801 902.893 30.3361V26.5921H902.605C901.549 28.4641 899.005 30.0961 895.357 30.0961ZM892.285 19.1041C892.285 22.5121 893.485 24.0961 897.565 24.0961C901.021 24.0961 902.893 22.8961 902.893 19.8241V18.3841C902.893 15.3121 901.069 14.1121 897.613 14.1121C893.485 14.1121 892.285 15.6961 892.285 19.1041ZM935.059 32.7801C932.721 32.7801 931.181 30.9601 931.181 27.9501C931.181 24.9401 932.721 23.1201 935.059 23.1201C937.411 23.1201 938.937 24.9401 938.937 27.9501C938.937 30.9601 937.411 32.7801 935.059 32.7801ZM935.059 31.8141C936.907 31.8141 937.887 30.6381 937.887 27.9501C937.887 25.2621 936.907 24.0861 935.059 24.0861C933.225 24.0861 932.245 25.2621 932.245 27.9501C932.245 30.6381 933.225 31.8141 935.059 31.8141ZM943.857 32.7801C941.547 32.7801 940.273 31.7021 940.273 29.9801V29.8961H941.281V29.9801C941.281 31.3661 942.149 31.8561 943.885 31.8561C945.705 31.8561 946.405 31.3101 946.405 29.6861C946.405 28.1741 945.649 27.5721 943.927 27.5721C942.681 27.5721 941.995 27.8941 941.379 28.2441L940.497 28.0621L940.875 23.2601H946.895V24.1701H941.757L941.449 27.4741H941.477C942.093 27.0261 943.017 26.7041 944.179 26.7041C946.125 26.7041 947.399 27.7541 947.399 29.6721C947.399 31.6181 946.209 32.7801 943.857 32.7801ZM964.103 33.1201C954.647 33.1201 950.279 29.2801 950.279 22.1761V21.5521H957.335V22.0321C957.335 25.5841 958.631 26.5921 964.439 26.5921C968.519 26.5921 969.527 25.7761 969.527 23.6161C969.527 21.4561 969.047 20.6881 964.535 19.9201L958.871 18.9121C952.727 17.8561 950.135 14.7361 950.135 9.74414C950.135 4.84813 953.735 0.000136375 962.951 0.000136375C972.119 0.000136375 975.959 4.75214 975.959 11.1361V11.5201H968.855V10.9921C968.855 7.63214 967.463 6.52814 962.711 6.52814C958.583 6.52814 957.287 7.44014 957.287 9.45614C957.287 11.5201 958.151 12.0001 961.895 12.7201L967.607 13.8241C974.375 15.1201 976.679 18.6721 976.679 23.3761C976.679 28.5121 973.223 33.1201 964.103 33.1201ZM990.477 32.7361C984.189 32.7361 981.165 30.4321 981.165 24.7201V14.4481H977.325V8.49614H981.357L982.701 2.88014H988.365V8.49614H995.181V14.4481H988.365V23.9041C988.365 26.0161 989.085 26.2561 992.205 26.2561H995.181V32.2561C994.029 32.4961 992.157 32.7361 990.477 32.7361ZM1005.71 32.6401H998.56V8.49614H1005.23V12.3841H1005.52C1006.72 9.93614 1008.88 8.01614 1012.29 8.01614C1017.33 8.01614 1019.2 11.7601 1019.2 16.6081V18.8161H1012.05V17.5201C1012.05 14.9281 1011.23 14.1121 1008.98 14.1121C1006.77 14.1121 1005.71 14.8801 1005.71 17.5201V32.6401ZM1028.15 33.1201C1023.88 33.1201 1020.57 30.8641 1020.57 26.4961C1020.57 22.7521 1023.26 20.4481 1028.25 19.6801L1036.51 18.4321V17.6641C1036.51 14.8321 1034.97 14.3041 1032.14 14.3041C1029.21 14.3041 1028.06 15.1201 1028.06 17.5681V18.0961H1021.19V17.5681C1021.19 11.8081 1025.66 8.01614 1032.47 8.01614C1039.58 8.01614 1043.32 11.9041 1043.32 18.3361V32.6401H1036.65V29.3761H1036.36C1035.07 31.1521 1032.62 33.1201 1028.15 33.1201ZM1027.43 25.9201C1027.43 27.2161 1028.44 27.6481 1030.55 27.6481C1033.48 27.6481 1036.51 26.8801 1036.51 23.1361L1029.59 24.1921C1028.11 24.4321 1027.43 24.9121 1027.43 25.9201ZM1058.54 32.7361C1052.25 32.7361 1049.23 30.4321 1049.23 24.7201V14.4481H1045.39V8.49614H1049.42L1050.76 2.88014H1056.43V8.49614H1063.24V14.4481H1056.43V23.9041C1056.43 26.0161 1057.15 26.2561 1060.27 26.2561H1063.24V32.2561C1062.09 32.4961 1060.22 32.7361 1058.54 32.7361ZM1077.15 33.1201C1068.85 33.1201 1065.05 28.2721 1065.05 20.6401C1065.05 12.9121 1069.66 8.01614 1077.2 8.01614C1084.45 8.01614 1088.72 12.3361 1088.72 18.6241C1088.72 19.9681 1088.53 21.3601 1088.38 22.1761H1071.82C1071.97 25.5361 1073.31 26.8801 1077.25 26.8801C1080.13 26.8801 1081.37 26.2561 1081.37 24.7681V24.4801H1088.48V24.9601C1088.48 30.0961 1084.06 33.1201 1077.15 33.1201ZM1076.96 13.9201C1073.5 13.9201 1072.16 15.2641 1071.87 17.8081H1081.81C1081.95 15.3121 1080.32 13.9201 1076.96 13.9201ZM1101.81 30.0961C1095.14 30.0961 1091.59 25.8241 1091.59 19.1041C1091.59 12.3841 1095.23 8.01614 1102.1 8.01614C1105.55 8.01614 1108.29 9.36014 1109.59 12.0001H1109.83V8.49614H1116.5V29.9521C1116.5 37.8241 1112.32 41.2801 1104.55 41.2801C1097.01 41.2801 1092.79 37.9681 1092.79 31.8241H1099.94C1099.94 34.3201 1100.66 34.9441 1104.79 34.9441C1108.58 34.9441 1109.35 34.0801 1109.35 30.3361V26.5921H1109.06C1108 28.4641 1105.46 30.0961 1101.81 30.0961ZM1098.74 19.1041C1098.74 22.5121 1099.94 24.0961 1104.02 24.0961C1107.47 24.0961 1109.35 22.8961 1109.35 19.8241V18.3841C1109.35 15.3121 1107.52 14.1121 1104.07 14.1121C1099.94 14.1121 1098.74 15.6961 1098.74 19.1041ZM1125.47 40.8001C1123.84 40.8001 1122.07 40.5121 1121.06 40.2721V34.3201H1125.09C1126.91 34.3201 1127.59 34.0801 1128.31 32.5441L1128.74 31.6321L1118.61 8.49614H1126.63L1130.56 18.5761L1132.29 23.2321H1132.82L1134.31 18.5761L1137.71 8.49614H1145.73L1134.98 34.3201C1132.91 39.2641 1130.23 40.8001 1125.47 40.8001ZM1168.84 32.7801C1166.5 32.7801 1164.96 30.9601 1164.96 27.9501C1164.96 24.9401 1166.5 23.1201 1168.84 23.1201C1171.19 23.1201 1172.72 24.9401 1172.72 27.9501C1172.72 30.9601 1171.19 32.7801 1168.84 32.7801ZM1168.84 31.8141C1170.69 31.8141 1171.67 30.6381 1171.67 27.9501C1171.67 25.2621 1170.69 24.0861 1168.84 24.0861C1167.01 24.0861 1166.03 25.2621 1166.03 27.9501C1166.03 30.6381 1167.01 31.8141 1168.84 31.8141ZM1177.89 32.7801C1175.13 32.7801 1174.13 31.2261 1174.13 27.8941C1174.13 25.1221 1175.19 23.1201 1177.99 23.1201C1179.82 23.1201 1181.17 24.1561 1181.17 25.9621V26.0461H1180.12V25.9621C1180.12 24.8981 1179.63 24.0861 1177.89 24.0861C1175.72 24.0861 1175.15 25.3041 1175.15 27.7681V28.5521H1175.22C1175.54 27.6001 1176.52 26.8301 1178.23 26.8301C1180.27 26.8301 1181.43 27.9921 1181.43 29.7701C1181.43 31.6041 1180.15 32.7801 1177.89 32.7801ZM1177.92 31.8141C1179.74 31.8141 1180.44 31.1421 1180.44 29.7421C1180.44 28.3841 1179.77 27.6981 1177.93 27.6981C1176.17 27.6981 1175.36 28.4261 1175.36 29.7561C1175.36 31.1281 1176.18 31.8141 1177.92 31.8141ZM1198.99 33.1201C1189.35 33.1201 1183.59 26.5921 1183.59 16.5601C1183.59 6.52814 1189.35 0.000136375 1198.99 0.000136375C1208.5 0.000136375 1213.63 4.99214 1213.63 12.9601V13.3921H1205.95V13.1521C1205.95 8.54414 1204.03 6.96014 1198.95 6.96014C1193.52 6.96014 1191.27 8.92814 1191.27 16.5601C1191.27 24.1921 1193.52 26.1601 1198.95 26.1601C1204.03 26.1601 1205.95 24.5761 1205.95 19.9681V19.7281H1213.63V20.1601C1213.63 28.1281 1208.5 33.1201 1198.99 33.1201ZM1228.92 33.1201C1221.14 33.1201 1216.54 28.2241 1216.54 20.5921C1216.54 12.9121 1221.14 8.01614 1228.92 8.01614C1236.65 8.01614 1241.16 12.9121 1241.16 20.5921C1241.16 28.2241 1236.65 33.1201 1228.92 33.1201ZM1228.92 26.7841C1232.81 26.7841 1234.15 25.2481 1234.15 20.5921C1234.15 15.8881 1232.81 14.3521 1228.92 14.3521C1224.98 14.3521 1223.64 15.8881 1223.64 20.5921C1223.64 25.2481 1224.98 26.7841 1228.92 26.7841ZM1251.6 32.6401H1244.45V8.49614H1251.12V12.7201H1251.41C1252.7 9.98414 1255.29 8.01614 1259.52 8.01614C1265.81 8.01614 1268.49 12.1921 1268.49 17.3281V32.6401H1261.29V18.7681C1261.29 15.4081 1260.19 14.2081 1256.54 14.2081C1253.09 14.2081 1251.6 15.3121 1251.6 18.9601V32.6401ZM1283.23 33.1201C1275.64 33.1201 1271.95 30.2881 1271.95 24.4321V24.2881H1278.81V25.2961C1278.81 27.0721 1279.87 27.4561 1283.37 27.4561C1286.3 27.4561 1286.78 27.0241 1286.78 25.8241C1286.78 24.5281 1286.11 24.2401 1282.89 23.6641L1279.24 22.9921C1274.49 22.1281 1271.9 20.1121 1271.9 15.6481C1271.9 11.1841 1275.55 8.01614 1282.41 8.01614C1288.31 8.01614 1292.83 10.8001 1292.83 16.2241V16.8961H1285.96V16.2241C1285.96 14.6401 1285.29 13.7761 1282.22 13.7761C1279.34 13.7761 1278.67 14.4001 1278.67 15.5521C1278.67 16.7041 1279.1 17.0401 1281.98 17.6161L1286.39 18.5281C1291.48 19.4881 1293.59 21.7921 1293.59 25.7281C1293.59 30.2401 1289.9 33.1201 1283.23 33.1201ZM1305.59 33.1201C1299.25 33.1201 1296.61 28.9441 1296.61 23.8081V8.49614H1303.77V22.3681C1303.77 25.7281 1304.92 26.9281 1308.52 26.9281C1311.97 26.9281 1313.46 25.8241 1313.46 22.1761V8.49614H1320.61V32.6401H1313.94V28.4161H1313.7C1312.36 31.2001 1309.81 33.1201 1305.59 33.1201ZM1332.18 32.6401H1325.02V0.480136H1332.18V32.6401ZM1347.5 32.7361C1341.22 32.7361 1338.19 30.4321 1338.19 24.7201V14.4481H1334.35V8.49614H1338.38L1339.73 2.88014H1345.39V8.49614H1352.21V14.4481H1345.39V23.9041C1345.39 26.0161 1346.11 26.2561 1349.23 26.2561H1352.21V32.2561C1351.06 32.4961 1349.18 32.7361 1347.5 32.7361ZM1362.21 5.76014H1355.16L1355.06 0.480136H1362.21V5.76014ZM1362.36 32.6401H1355.16V8.49614H1362.36V32.6401ZM1373.52 32.6401H1366.37V8.49614H1373.04V12.7201H1373.33C1374.62 9.98414 1377.22 8.01614 1381.44 8.01614C1387.73 8.01614 1390.42 12.1921 1390.42 17.3281V32.6401H1383.22V18.7681C1383.22 15.4081 1382.11 14.2081 1378.46 14.2081C1375.01 14.2081 1373.52 15.3121 1373.52 18.9601V32.6401ZM1403.85 30.0961C1397.18 30.0961 1393.63 25.8241 1393.63 19.1041C1393.63 12.3841 1397.28 8.01614 1404.14 8.01614C1407.6 8.01614 1410.33 9.36014 1411.63 12.0001H1411.87V8.49614H1418.54V29.9521C1418.54 37.8241 1414.37 41.2801 1406.59 41.2801C1399.05 41.2801 1394.83 37.9681 1394.83 31.8241H1401.98C1401.98 34.3201 1402.7 34.9441 1406.83 34.9441C1410.62 34.9441 1411.39 34.0801 1411.39 30.3361V26.5921H1411.1C1410.05 28.4641 1407.5 30.0961 1403.85 30.0961ZM1400.78 19.1041C1400.78 22.5121 1401.98 24.0961 1406.06 24.0961C1409.52 24.0961 1411.39 22.8961 1411.39 19.8241V18.3841C1411.39 15.3121 1409.57 14.1121 1406.11 14.1121C1401.98 14.1121 1400.78 15.6961 1400.78 19.1041ZM1443.56 32.7801C1441.22 32.7801 1439.68 30.9601 1439.68 27.9501C1439.68 24.9401 1441.22 23.1201 1443.56 23.1201C1445.91 23.1201 1447.43 24.9401 1447.43 27.9501C1447.43 30.9601 1445.91 32.7801 1443.56 32.7801ZM1443.56 31.8141C1445.4 31.8141 1446.38 30.6381 1446.38 27.9501C1446.38 25.2621 1445.4 24.0861 1443.56 24.0861C1441.72 24.0861 1440.74 25.2621 1440.74 27.9501C1440.74 30.6381 1441.72 31.8141 1443.56 31.8141ZM1450.84 32.6541H1449.78C1449.78 28.5381 1451.52 25.7661 1453.22 24.2261V24.1701H1447.65V23.2601H1454.46V24.0861C1451.92 26.3821 1450.84 29.2521 1450.84 32.6541ZM1471.6 33.1201C1461.96 33.1201 1456.2 26.5921 1456.2 16.5601C1456.2 6.52814 1461.96 0.000136375 1471.6 0.000136375C1481.11 0.000136375 1486.24 4.99214 1486.24 12.9601V13.3921H1478.56V13.1521C1478.56 8.54414 1476.64 6.96014 1471.56 6.96014C1466.13 6.96014 1463.88 8.92814 1463.88 16.5601C1463.88 24.1921 1466.13 26.1601 1471.56 26.1601C1476.64 26.1601 1478.56 24.5761 1478.56 19.9681V19.7281H1486.24V20.1601C1486.24 28.1281 1481.11 33.1201 1471.6 33.1201ZM1501.53 33.1201C1493.75 33.1201 1489.14 28.2241 1489.14 20.5921C1489.14 12.9121 1493.75 8.01614 1501.53 8.01614C1509.26 8.01614 1513.77 12.9121 1513.77 20.5921C1513.77 28.2241 1509.26 33.1201 1501.53 33.1201ZM1501.53 26.7841C1505.42 26.7841 1506.76 25.2481 1506.76 20.5921C1506.76 15.8881 1505.42 14.3521 1501.53 14.3521C1497.59 14.3521 1496.25 15.8881 1496.25 20.5921C1496.25 25.2481 1497.59 26.7841 1501.53 26.7841ZM1523.82 40.7041H1516.62V8.49614H1523.3V12.0481H1523.54C1524.83 9.45614 1527.62 8.01614 1531.22 8.01614C1538.03 8.01614 1541.58 12.9601 1541.58 20.5921C1541.58 28.1761 1537.89 33.1201 1531.36 33.1201C1527.52 33.1201 1525.17 31.5361 1524.06 29.4721H1523.82V40.7041ZM1523.82 22.5121C1523.82 25.7761 1525.7 26.9761 1529.1 26.9761C1533.28 26.9761 1534.38 24.9601 1534.38 20.5921C1534.38 16.1761 1533.28 14.1601 1529.1 14.1601C1525.7 14.1601 1523.82 15.3601 1523.82 18.6241V22.5121ZM1549 40.8001C1547.37 40.8001 1545.59 40.5121 1544.59 40.2721V34.3201H1548.62C1550.44 34.3201 1551.11 34.0801 1551.83 32.5441L1552.27 31.6321L1542.14 8.49614H1550.15L1554.09 18.5761L1555.82 23.2321H1556.35L1557.83 18.5761L1561.24 8.49614H1569.26L1558.51 34.3201C1556.44 39.2641 1553.75 40.8001 1549 40.8001ZM1584.58 32.6401H1575.18L1569.56 8.49614H1577.48L1579.06 19.6321L1579.98 26.8801H1580.5L1581.85 19.6321L1584.78 8.49614H1593.94L1596.92 19.6801L1598.22 26.8801H1598.7L1599.56 19.6801L1601.24 8.49614H1608.82L1603.21 32.6401H1593.8L1590.68 21.1681L1589.48 14.8321H1588.95L1587.75 21.1681L1584.58 32.6401ZM1618.19 32.6401H1611.04V8.49614H1617.71V12.3841H1618C1619.2 9.93614 1621.36 8.01614 1624.77 8.01614C1629.81 8.01614 1631.68 11.7601 1631.68 16.6081V18.8161H1624.53V17.5201C1624.53 14.9281 1623.71 14.1121 1621.46 14.1121C1619.25 14.1121 1618.19 14.8801 1618.19 17.5201V32.6401ZM1641.01 5.76014H1633.96L1633.86 0.480136H1641.01V5.76014ZM1641.16 32.6401H1633.96V8.49614H1641.16V32.6401ZM1656.16 32.7361C1649.87 32.7361 1646.85 30.4321 1646.85 24.7201V14.4481H1643.01V8.49614H1647.04L1648.38 2.88014H1654.05V8.49614H1660.86V14.4481H1654.05V23.9041C1654.05 26.0161 1654.77 26.2561 1657.89 26.2561H1660.86V32.2561C1659.71 32.4961 1657.84 32.7361 1656.16 32.7361ZM1670.87 5.76014H1663.81L1663.72 0.480136H1670.87V5.76014ZM1671.01 32.6401H1663.81V8.49614H1671.01V32.6401ZM1682.18 32.6401H1675.02V8.49614H1681.7V12.7201H1681.98C1683.28 9.98414 1685.87 8.01614 1690.1 8.01614C1696.38 8.01614 1699.07 12.1921 1699.07 17.3281V32.6401H1691.87V18.7681C1691.87 15.4081 1690.77 14.2081 1687.12 14.2081C1683.66 14.2081 1682.18 15.3121 1682.18 18.9601V32.6401ZM1712.51 30.0961C1705.84 30.0961 1702.29 25.8241 1702.29 19.1041C1702.29 12.3841 1705.93 8.01614 1712.8 8.01614C1716.25 8.01614 1718.99 9.36014 1720.29 12.0001H1720.53V8.49614H1727.2V29.9521C1727.2 37.8241 1723.02 41.2801 1715.25 41.2801C1707.71 41.2801 1703.49 37.9681 1703.49 31.8241H1710.64C1710.64 34.3201 1711.36 34.9441 1715.49 34.9441C1719.28 34.9441 1720.05 34.0801 1720.05 30.3361V26.5921H1719.76C1718.7 28.4641 1716.16 30.0961 1712.51 30.0961ZM1709.44 19.1041C1709.44 22.5121 1710.64 24.0961 1714.72 24.0961C1718.17 24.0961 1720.05 22.8961 1720.05 19.8241V18.3841C1720.05 15.3121 1718.22 14.1121 1714.77 14.1121C1710.64 14.1121 1709.44 15.6961 1709.44 19.1041ZM1743.07 32.7801C1740.73 32.7801 1739.19 30.9601 1739.19 27.9501C1739.19 24.9401 1740.73 23.1201 1743.07 23.1201C1745.42 23.1201 1746.95 24.9401 1746.95 27.9501C1746.95 30.9601 1745.42 32.7801 1743.07 32.7801ZM1743.07 31.8141C1744.92 31.8141 1745.9 30.6381 1745.9 27.9501C1745.9 25.2621 1744.92 24.0861 1743.07 24.0861C1741.24 24.0861 1740.26 25.2621 1740.26 27.9501C1740.26 30.6381 1741.24 31.8141 1743.07 31.8141ZM1751.8 32.7801C1749.49 32.7801 1748.1 31.8001 1748.1 30.1061C1748.1 28.8461 1748.87 28.0201 1750.04 27.7261V27.6701C1748.97 27.4601 1748.37 26.6341 1748.37 25.5701C1748.37 24.1421 1749.59 23.1201 1751.8 23.1201C1754.04 23.1201 1755.24 24.1421 1755.24 25.5701C1755.24 26.6341 1754.64 27.4601 1753.59 27.6701V27.7261C1754.75 28.0201 1755.52 28.8461 1755.52 30.1061C1755.52 31.8001 1754.12 32.7801 1751.8 32.7801ZM1751.8 27.3901C1753.58 27.3901 1754.24 26.8301 1754.24 25.6961C1754.24 24.6601 1753.66 24.0441 1751.8 24.0441C1749.97 24.0441 1749.38 24.6601 1749.38 25.6961C1749.38 26.8301 1750.05 27.3901 1751.8 27.3901ZM1751.8 31.8561C1753.86 31.8561 1754.5 31.1981 1754.5 29.9801C1754.5 28.7481 1753.83 28.1041 1751.8 28.1041C1749.78 28.1041 1749.13 28.7481 1749.13 29.9801C1749.13 31.1981 1749.77 31.8561 1751.8 31.8561ZM1772.1 33.1201C1762.65 33.1201 1758.28 29.2801 1758.28 22.1761V21.5521H1765.33V22.0321C1765.33 25.5841 1766.63 26.5921 1772.44 26.5921C1776.52 26.5921 1777.53 25.7761 1777.53 23.6161C1777.53 21.4561 1777.05 20.6881 1772.53 19.9201L1766.87 18.9121C1760.73 17.8561 1758.13 14.7361 1758.13 9.74414C1758.13 4.84813 1761.73 0.000136375 1770.95 0.000136375C1780.12 0.000136375 1783.96 4.75214 1783.96 11.1361V11.5201H1776.85V10.9921C1776.85 7.63214 1775.46 6.52814 1770.71 6.52814C1766.58 6.52814 1765.29 7.44014 1765.29 9.45614C1765.29 11.5201 1766.15 12.0001 1769.89 12.7201L1775.61 13.8241C1782.37 15.1201 1784.68 18.6721 1784.68 23.3761C1784.68 28.5121 1781.22 33.1201 1772.1 33.1201ZM1799.23 33.1201C1791.46 33.1201 1786.85 28.2241 1786.85 20.5921C1786.85 12.9121 1791.46 8.01614 1799.23 8.01614C1806.96 8.01614 1811.47 12.9121 1811.47 20.5921C1811.47 28.2241 1806.96 33.1201 1799.23 33.1201ZM1799.23 26.7841C1803.12 26.7841 1804.47 25.2481 1804.47 20.5921C1804.47 15.8881 1803.12 14.3521 1799.23 14.3521C1795.3 14.3521 1793.95 15.8881 1793.95 20.5921C1793.95 25.2481 1795.3 26.7841 1799.23 26.7841ZM1826.42 33.1201C1818.45 33.1201 1814.18 28.2721 1814.18 20.6401C1814.18 12.9121 1818.74 8.01614 1826.8 8.01614C1833.23 8.01614 1837.94 11.9521 1837.94 17.9041V18.4801H1830.74V18.0961C1830.74 15.3601 1829.2 14.4481 1826.23 14.4481C1822.77 14.4481 1821.28 16.0801 1821.28 20.5921C1821.28 25.0561 1822.77 26.6881 1826.23 26.6881C1829.2 26.6881 1830.74 25.7761 1830.74 23.0401V22.6561H1837.94V23.2321C1837.94 29.1841 1833.09 33.1201 1826.42 33.1201ZM1847.97 5.76014H1840.91L1840.81 0.480136H1847.97V5.76014ZM1848.11 32.6401H1840.91V8.49614H1848.11V32.6401ZM1858.79 33.1201C1854.52 33.1201 1851.21 30.8641 1851.21 26.4961C1851.21 22.7521 1853.9 20.4481 1858.89 19.6801L1867.14 18.4321V17.6641C1867.14 14.8321 1865.61 14.3041 1862.78 14.3041C1859.85 14.3041 1858.7 15.1201 1858.7 17.5681V18.0961H1851.83V17.5681C1851.83 11.8081 1856.3 8.01614 1863.11 8.01614C1870.22 8.01614 1873.96 11.9041 1873.96 18.3361V32.6401H1867.29V29.3761H1867C1865.7 31.1521 1863.26 33.1201 1858.79 33.1201ZM1858.07 25.9201C1858.07 27.2161 1859.08 27.6481 1861.19 27.6481C1864.12 27.6481 1867.14 26.8801 1867.14 23.1361L1860.23 24.1921C1858.74 24.4321 1858.07 24.9121 1858.07 25.9201ZM1885.38 32.6401H1878.23V0.480136H1885.38V32.6401ZM1913.68 33.1201C1904.42 33.1201 1899.24 26.5921 1899.24 16.5601C1899.24 6.57613 1904.42 0.000136375 1913.68 0.000136375C1922.9 0.000136375 1928.08 6.57613 1928.08 16.5601C1928.08 26.5921 1922.9 33.1201 1913.68 33.1201ZM1913.68 26.1601C1918.58 26.1601 1920.4 24.1921 1920.4 16.5601C1920.4 8.92814 1918.58 6.96014 1913.68 6.96014C1908.74 6.96014 1906.92 8.92814 1906.92 16.5601C1906.92 24.1921 1908.74 26.1601 1913.68 26.1601ZM1946.85 33.1201C1939.26 33.1201 1934.65 29.0881 1934.65 22.8961V22.6081H1942.29V22.8961C1942.29 25.2961 1943.77 26.2561 1947.33 26.2561C1952.03 26.2561 1953.09 24.3841 1953.09 19.3921V16.6081H1952.85C1951.41 18.7201 1948.86 20.3521 1944.06 20.3521C1937.05 20.3521 1933.45 16.7041 1933.45 10.6081C1933.45 4.12813 1937.97 0.000136375 1946.56 0.000136375C1956.83 0.000136375 1960.53 5.28013 1960.53 16.7041C1960.53 27.6481 1955.97 33.1201 1946.85 33.1201ZM1946.51 14.5441C1951.02 14.5441 1952.46 13.4881 1952.46 10.7521C1952.46 7.96814 1951.02 6.91214 1946.51 6.91214C1941.9 6.91214 1940.51 7.96814 1940.51 10.7521C1940.51 13.4881 1941.9 14.5441 1946.51 14.5441ZM1971.87 32.6401H1964.67V0.480136H1974.8L1980.41 15.5041L1983 23.7601H1983.48L1986.03 15.5041L1991.4 0.480136H2001.53V32.6401H1994.33V17.4241L1994.72 11.2321H1994.19L1992.32 17.5201L1987.47 30.4321H1978.73L1973.88 17.5201L1971.96 11.2321H1971.48L1971.87 17.4241V32.6401ZM2012.68 33.1201C2008.41 33.1201 2005.1 30.8641 2005.1 26.4961C2005.1 22.7521 2007.79 20.4481 2012.78 19.6801L2021.03 18.4321V17.6641C2021.03 14.8321 2019.5 14.3041 2016.67 14.3041C2013.74 14.3041 2012.59 15.1201 2012.59 17.5681V18.0961H2005.72V17.5681C2005.72 11.8081 2010.19 8.01614 2017 8.01614C2024.11 8.01614 2027.85 11.9041 2027.85 18.3361V32.6401H2021.18V29.3761H2020.89C2019.59 31.1521 2017.15 33.1201 2012.68 33.1201ZM2011.96 25.9201C2011.96 27.2161 2012.97 27.6481 2015.08 27.6481C2018.01 27.6481 2021.03 26.8801 2021.03 23.1361L2014.12 24.1921C2012.63 24.4321 2011.96 24.9121 2011.96 25.9201ZM2039.27 32.6401H2032.12V8.49614H2038.79V12.3841H2039.08C2040.28 9.93614 2042.44 8.01614 2045.85 8.01614C2050.89 8.01614 2052.76 11.7601 2052.76 16.6081V18.8161H2045.61V17.5201C2045.61 14.9281 2044.79 14.1121 2042.54 14.1121C2040.33 14.1121 2039.27 14.8801 2039.27 17.5201V32.6401ZM2062.76 32.6401H2055.6V0.480136H2062.76V17.4241H2066.31L2071.78 8.49614H2080.04L2072.16 20.0161L2079.99 32.6401H2071.73L2066.45 23.8561H2062.76V32.6401ZM2091.77 33.1201C2083.47 33.1201 2079.68 28.2721 2079.68 20.6401C2079.68 12.9121 2084.29 8.01614 2091.82 8.01614C2099.07 8.01614 2103.34 12.3361 2103.34 18.6241C2103.34 19.9681 2103.15 21.3601 2103.01 22.1761H2086.45C2086.59 25.5361 2087.93 26.8801 2091.87 26.8801C2094.75 26.8801 2096 26.2561 2096 24.7681V24.4801H2103.1V24.9601C2103.1 30.0961 2098.69 33.1201 2091.77 33.1201ZM2091.58 13.9201C2088.13 13.9201 2086.78 15.2641 2086.49 17.8081H2096.43C2096.57 15.3121 2094.94 13.9201 2091.58 13.9201ZM2117.74 32.7361C2111.45 32.7361 2108.43 30.4321 2108.43 24.7201V14.4481H2104.59V8.49614H2108.62L2109.96 2.88014H2115.63V8.49614H2122.44V14.4481H2115.63V23.9041C2115.63 26.0161 2116.35 26.2561 2119.47 26.2561H2122.44V32.2561C2121.29 32.4961 2119.42 32.7361 2117.74 32.7361ZM2132.45 5.76014H2125.39L2125.3 0.480136H2132.45V5.76014ZM2132.59 32.6401H2125.39V8.49614H2132.59V32.6401ZM2143.76 32.6401H2136.6V8.49614H2143.28V12.7201H2143.56C2144.86 9.98414 2147.45 8.01614 2151.68 8.01614C2157.96 8.01614 2160.65 12.1921 2160.65 17.3281V32.6401H2153.45V18.7681C2153.45 15.4081 2152.35 14.2081 2148.7 14.2081C2145.24 14.2081 2143.76 15.3121 2143.76 18.9601V32.6401ZM2174.09 30.0961C2167.42 30.0961 2163.87 25.8241 2163.87 19.1041C2163.87 12.3841 2167.51 8.01614 2174.38 8.01614C2177.83 8.01614 2180.57 9.36014 2181.87 12.0001H2182.11V8.49614H2188.78V29.9521C2188.78 37.8241 2184.6 41.2801 2176.83 41.2801C2169.29 41.2801 2165.07 37.9681 2165.07 31.8241H2172.22C2172.22 34.3201 2172.94 34.9441 2177.07 34.9441C2180.86 34.9441 2181.63 34.0801 2181.63 30.3361V26.5921H2181.34C2180.28 28.4641 2177.74 30.0961 2174.09 30.0961ZM2171.02 19.1041C2171.02 22.5121 2172.22 24.0961 2176.3 24.0961C2179.75 24.0961 2181.63 22.8961 2181.63 19.8241V18.3841C2181.63 15.3121 2179.8 14.1121 2176.35 14.1121C2172.22 14.1121 2171.02 15.6961 2171.02 19.1041Z" fill="white"/>
</svg>
