<svg width="98" height="32" viewBox="0 0 98 32" fill="none" xmlns="http://www.w3.org/2000/svg">
<path d="M10.075 26.4265C8.83537 26.4265 7.66667 26.2052 6.56874 25.7624C5.48853 25.302 4.54999 24.6557 3.75312 23.8234C2.97395 22.9911 2.38958 22.0083 2 20.8749L5.37343 19.3609C5.86925 20.4411 6.55103 21.2911 7.41873 21.9109C8.30417 22.5307 9.27812 22.8406 10.3406 22.8406C10.9072 22.8406 11.3942 22.752 11.8015 22.5749C12.2088 22.3979 12.5276 22.1588 12.7578 21.8578C12.988 21.539 13.1031 21.1671 13.1031 20.7421C13.1031 20.2817 12.9614 19.8921 12.6781 19.5734C12.3947 19.2369 11.952 18.9713 11.35 18.7766L7.47185 17.5015C5.89582 16.988 4.70936 16.2619 3.91249 15.3234C3.11562 14.3671 2.71718 13.225 2.71718 11.8969C2.71718 10.7281 3.00052 9.70103 3.56718 8.81559C4.15155 7.93021 4.95728 7.23959 5.98436 6.74375C7.02915 6.24792 8.22443 6 9.57029 6C10.7567 6 11.8546 6.20365 12.864 6.61094C13.8734 7.01821 14.7411 7.59377 15.4671 8.33751C16.2109 9.08125 16.7687 9.97553 17.1406 11.0203L13.7937 12.5344C13.4218 11.6135 12.864 10.8964 12.1203 10.3828C11.3766 9.85156 10.5265 9.58596 9.57029 9.58596C9.02136 9.58596 8.53438 9.67447 8.10936 9.85156C7.68433 10.0286 7.35675 10.2854 7.12654 10.6219C6.89634 10.9406 6.78124 11.3125 6.78124 11.7375C6.78124 12.1979 6.93175 12.6052 7.23279 12.9593C7.5338 13.2958 7.98539 13.5614 8.5875 13.7562L12.3859 14.9781C13.9796 15.4916 15.1661 16.2088 15.9453 17.1296C16.7421 18.0505 17.1406 19.1749 17.1406 20.5031C17.1406 21.6541 16.8395 22.6812 16.2374 23.5843C15.6354 24.4697 14.8031 25.1692 13.7406 25.6827C12.6958 26.1786 11.4739 26.4265 10.075 26.4265Z" fill="#FAD007"/>
<path d="M20.0745 26.1077V6.31873H24.1916V26.1077H20.0745Z" fill="#FAD007"/>
<path d="M27.7009 26.1077V6.31873H31.8181V22.5218H49.1853V26.1077H27.7009Z" fill="#FAD007"/>
<path d="M54.5498 13.5734C54.5498 14.8129 54.3284 16.9817 53.8857 18.0796C53.4253 19.1598 52.7789 20.0984 51.9467 20.8952C51.1144 21.6744 50.1316 22.2587 48.9982 22.6483L47.4842 19.2749C48.5644 18.7791 49.4144 18.0973 50.0342 17.2296C50.654 16.3442 50.9638 14.3702 50.9638 13.3077C50.9638 12.7411 50.8753 12.2541 50.6982 11.8468C50.5212 11.4395 50.2821 11.1208 49.9811 10.8906C49.6623 10.6603 49.2904 10.5453 48.8654 10.5453C48.405 10.5453 48.0154 10.6869 47.6967 10.9702C47.3602 11.2536 47.0946 11.6963 46.8998 12.2984L45.6248 16.1764C45.1113 17.7525 44.3852 18.9389 43.4467 19.7359C42.4904 20.5327 41.3483 20.9311 40.0202 20.9311C38.8514 20.9311 37.8243 20.6478 36.9389 20.0811C36.0535 19.4968 35.3629 18.6911 34.867 17.664C34.3712 16.6192 34.1233 15.4239 34.1233 14.0781C34.1233 12.8916 34.3269 11.7937 34.7342 10.7843C35.1415 9.77491 35.7171 8.9072 36.4608 8.18118C37.2045 7.43744 38.0988 6.87961 39.1436 6.50777L40.6577 9.85465C39.7368 10.2265 39.0196 10.7843 38.5061 11.5281C37.9748 12.2718 37.7092 13.1218 37.7092 14.0781C37.7092 14.627 37.7978 15.114 37.9748 15.539C38.1519 15.964 38.4087 16.2916 38.7452 16.5218C39.0639 16.752 39.4358 16.8671 39.8608 16.8671C40.3212 16.8671 40.7284 16.7166 41.0826 16.4155C41.4191 16.1145 41.6847 15.6629 41.8795 15.0609L43.1014 11.2625C43.6149 9.66867 44.3321 8.48224 45.2529 7.70304C46.1738 6.90617 47.2982 6.50777 48.6264 6.50777C49.7774 6.50777 50.8045 6.80883 51.7076 7.41087C52.593 8.01299 53.2925 8.84524 53.806 9.90777C54.3019 10.9525 54.5498 12.1744 54.5498 13.5734Z" fill="#FAD007"/>
<path d="M56.4255 26.1077V6.31873H60.5427V26.1077H56.4255Z" fill="#FAD007"/>
<path d="M63.1233 26.2968V6.50781H67.2404V22.7109H75.6078V26.2968H63.1233Z" fill="#FAD007"/>
<path d="M77.1174 26.1077L83.8112 6.31873H89.2825L95.9763 26.1077H91.4874L90.1594 22.0702H82.9075L81.5795 26.1077H77.1174ZM84.0499 18.4843H89.0169L85.9891 9.13435H87.1046L84.0499 18.4843Z" fill="#FAD007"/>
</svg>
