<svg width="24" height="24" viewBox="0 0 24 24" fill="none" xmlns="http://www.w3.org/2000/svg">
<path d="M10 19H14C16.8089 19 18.2134 19 19.2223 18.3259C19.659 18.034 20.034 17.659 20.3259 17.2223C21 16.2134 21 14.8089 21 12C21 9.19108 21 7.78661 20.3259 6.77772C20.034 6.34096 19.659 5.96596 19.2223 5.67412C18.2134 5 16.8089 5 14 5H10C7.19108 5 5.78661 5 4.77772 5.67412C4.34096 5.96596 3.96596 6.34096 3.67412 6.77772C3 7.78661 3 9.19108 3 12C3 14.8089 3 16.2134 3.67412 17.2223C3.96596 17.659 4.34096 18.034 4.77772 18.3259C5.78661 19 7.19108 19 10 19Z" stroke="#39393B" stroke-width="1.5"/>
<path d="M12.7801 10.39C14.0169 11.0085 14.6354 11.3177 14.7395 11.7804C14.7721 11.925 14.7721 12.075 14.7395 12.2196C14.6354 12.6823 14.0169 12.9915 12.7801 13.61L12.605 13.6975C11.5762 14.2119 11.0618 14.4691 10.657 14.3213C10.5291 14.2746 10.4122 14.2023 10.3132 14.1089C10 13.8129 10 13.2378 10 12.0875L10 11.9125C10 10.7622 10 10.1871 10.3132 9.89115C10.4122 9.79768 10.5291 9.72539 10.657 9.67871C11.0618 9.53089 11.5762 9.78809 12.605 10.3025L12.7801 10.39Z" stroke="#39393B" stroke-width="1.5"/>
</svg>
